# xmcd
#
# Track frame offsets:
#	150
#	16694
#	26445
#	34539
#	56504
#	64872
#	85975
#	94094
#	107885
#	120089
#	130687
#	139966
#	162636
#	173357
#
# Disc length: 2452 seconds
#
# Revision: 0
# Processed by: cddbd v1.5.1PL0 Copyright (c) Steve Scherf et al.
# Submitted via: dBpowerAMP V4.0
#
DISCID=a809920e
DTITLE=Real Kids - Garage
DYEAR=1900
DGENRE=Blues
TTITLE0=All Kindsa Girls
TTITLE1=Solid Gold (Thru And Thru)
TTITLE2=Rave On
TTITLE3=Better Be Good
TTITLE4=Taxi Boys
TTITLE5=Just Like Darts
TTITLE6=She's Alright
TTITLE7=My Baby's book
TTITLE8=Roberta
TTITLE9=Do the Boob
TTITLE10=Ma Way
TTITLE11=Reggae Reggae
TTITLE12=Hit You Hard
TTITLE13=Jeannine Jeannine Jeannine
EXTD=
EXTT0=
EXTT1=
EXTT2=
EXTT3=
EXTT4=
EXTT5=
EXTT6=
EXTT7=
EXTT8=
EXTT9=
EXTT10=
EXTT11=
EXTT12=
EXTT13=
PLAYORDER=
